# xmcd
#
# Track frame offsets: 
#        150
#        48816
#        75602
#        105538
#        115441
#        126162
#        135197
#        198622
#        210528
#        220152
#        231913
#        248723
#        257912
#        293772
#
# Disc length: 4180 seconds
#
# Revision: 3
# Processed by: cddbd v1.5.2PL0 Copyright (c) Steve Scherf et al.
# Submitted via: ExactAudioCopy v1.0b3
#
DISCID=c810520e
DTITLE=Bettina Greve - Peter Lohmeyer - Auf Kurs - Die Johnny-Cash-Biog
DTITLE=rafie
DYEAR=2004
DGENRE=Hörbuch
TTITLE0=Mal abgesehen davon
TTITLE1=Bettina Greve - Peter Lohmeyer - Johnny Cash - Understand your m
TTITLE1=an
TTITLE2=Bettina Greve - Peter Lohmeyer - Johnny Cash - The ballad of Ira
TTITLE2=Hayes
TTITLE3=Johnny Cash - All of God's children ain't free
TTITLE4=Mit seinem nächsten Konzeptalbum
TTITLE5=Johnny Cash - Wer kennt den Weg? (I walk the line)
TTITLE6=Mag Johnny Cash auch
TTITLE7=Johnny Cash - Folsom Prison blues
TTITLE8=Der "Folsom-Prison-Blues" ist Futter
TTITLE9=Bettina Greve - Peter Lohmeyer - Johnny Cash - Ring of fire
TTITLE10=Weil weder die sensationslüsterne Presse
TTITLE11=Johnny Cash - Luther played the boogie
TTITLE12=Der Spaß ist vorbei
TTITLE13=Johnny Cash - To beat the devil
EXTD=
EXTT0=
EXTT1=
EXTT2=
EXTT3=
EXTT4=
EXTT5=
EXTT6=
EXTT7=
EXTT8=
EXTT9=
EXTT10=
EXTT11=
EXTT12=
EXTT13=
PLAYORDER=
